<svg id="weima-logo-full" xmlns="http://www.w3.org/2000/svg" viewBox="0 0 120 21.22" class="">
    <path fill="#231f20" class="border" d="M10.68 0a1.06 1.06 0 0 1 .88 1.67L2 15.13a1.1 1.1 0 0 1-.89.47A1.06 1.06 0 0 1 0 14.53V1.09A1.08 1.08 0 0 1 1.07 0z"></path>
    <path fill="#fff" d="M10.63 1a.1.1 0 0 1 .09.15L1.18 14.5a.1.1 0 0 1-.18-.05V1.31A.3.3 0 0 1 1.3 1z"></path>
    <path fill="#231f20" class="border" d="M23.29 0a1.08 1.08 0 0 1 .91 1.63L12.58 17.88a8 8 0 0 1-1.8 1.83 7.78 7.78 0 0 1-4.65 1.51A7.93 7.93 0 0 1 3 20.56a7.31 7.31 0 0 1-1.7-1 1.06 1.06 0 0 1-.21-1.45L13.67.45a1.08 1.08 0 0 1 .85-.45z"></path>
    <path fill="#fff" fill-rule="evenodd" d="M14.64 1a.3.3 0 0 0-.24.12L2 18.5s-.17.24 0 .36a5.52 5.52 0 0 0 1.35.78 6.78 6.78 0 0 0 2.77.58 6.74 6.74 0 0 0 4.1-1.34 7.29 7.29 0 0 0 1.55-1.58L23.32 1.18a.1.1 0 0 0-.08-.18z"></path>
    <path fill="#231f20" class="border" d="M35.95 0a1.08 1.08 0 0 1 .91 1.63L25.24 17.88a8 8 0 0 1-1.8 1.83 7.78 7.78 0 0 1-4.65 1.51 7.93 7.93 0 0 1-3.17-.66 7.31 7.31 0 0 1-1.7-1 1.06 1.06 0 0 1-.21-1.45L26.33.45a1.08 1.08 0 0 1 .85-.45z"></path>
    <path fill="#fff" fill-rule="evenodd" d="M27.29 1a.3.3 0 0 0-.24.12L14.62 18.51s-.17.24 0 .36a5.52 5.52 0 0 0 1.35.78 6.92 6.92 0 0 0 6.87-.76 7.29 7.29 0 0 0 1.55-1.58L36 1.18a.1.1 0 0 0-.11-.18z"></path>
  <g class="logo-fade-out">
    <path fill="#231f20" class="border" d="M52.11 18.08a10.5 10.5 0 0 1-7.44 3.07A10.56 10.56 0 0 1 44.5 0a9.89 9.89 0 0 1 4.45.9 1.07 1.07 0 0 1 .37 1.61l-9.23 12.97a7.64 7.64 0 0 0 2.14 1.37 5.79 5.79 0 0 0 2.58.44 6.58 6.58 0 0 0 3.91-1.37 5.5 5.5 0 0 0 1-.95 1 1 0 0 1 1.31-.07c.11.07 1.45 1 1.52 1.08a1.06 1.06 0 0 1 0 1.55c-.17.19-.34.38-.5.54z"></path>
    <path fill="#fff" fill-rule="evenodd" d="M51.69 16.58l-.45-.32-.57-.4a.3.3 0 0 0-.41 0l-.12.13a6.67 6.67 0 0 1-.84.71 7.56 7.56 0 0 1-4.47 1.55 6.92 6.92 0 0 1-2.95-.51 8.38 8.38 0 0 1-2.49-1.6l-.59-.59.48-.68 9.09-12.7a.3.3 0 0 0-.13-.46 8.7 8.7 0 0 0-1.64-.52A10.5 10.5 0 0 0 44.5 1a9.57 9.57 0 0 0-1.34 19 9.05 9.05 0 0 0 1.5.13 9.69 9.69 0 0 0 6.74-2.78l.35-.37a.3.3 0 0 0-.06-.43z"></path>
    <path fill="#231f20" class="border" d="M45.32 9.77L50.2 3a1.06 1.06 0 0 1 1.56-.16c.2.19.55.54.78.8a6 6 0 0 1 .89 1.14 12.85 12.85 0 0 1 1.38 3 11.6 11.6 0 0 1 .39 2.59 1.06 1.06 0 0 1-1.06 1.18h-8a1.07 1.07 0 0 1-.83-1.76z"></path>
    <path fill="#fff" fill-rule="evenodd" d="M46.35 10.37h7.58a.11.11 0 0 0 .11-.11v-.4a10.17 10.17 0 0 0-.52-2.44 7.48 7.48 0 0 0-.61-1.35 9.73 9.73 0 0 0-1.47-2c-.06-.06-.14-.13-.2-.2a.31.31 0 0 0-.48 0l-.64.93-3.84 5.35a.11.11 0 0 0 .09.16z"></path>
    <path fill="#231f20" class="border" d="M107.15 21.21a1.06 1.06 0 0 1-.86-1.7l11.76-16.42a1 1 0 0 1 .87-.45A1.07 1.07 0 0 1 120 3.71v16.44a1.06 1.06 0 0 1-1 1.07z"></path>
    <path fill="#fff" fill-rule="evenodd" d="M118.72 20.22a.3.3 0 0 0 .3-.3V3.76a.1.1 0 0 0-.19-.06l-11.7 16.36a.1.1 0 0 0 .08.16z"></path>
    <path fill="#231f20" class="border" d="M112.13 0a10.52 10.52 0 0 1 4.57 1 1.07 1.07 0 0 1 .37 1.54l-10.86 15.28a1.16 1.16 0 0 1-.89.47 1 1 0 0 1-.77-.34 10.66 10.66 0 0 1-2.33-3.7 11.21 11.21 0 0 1-.65-3.79 10.15 10.15 0 0 1 3.87-8A10.57 10.57 0 0 1 112.13 0z"></path>
    <path fill="#fff" fill-rule="evenodd" d="M105.41 17.25l10.85-15.16a.1.1 0 0 0 0-.15 9.11 9.11 0 0 0-4.1-.91 9.58 9.58 0 0 0-6 2.16 9.19 9.19 0 0 0-3.52 7.28 10.4 10.4 0 0 0 .6 3.47 9.94 9.94 0 0 0 2.1 3.33.1.1 0 0 0 .16 0z"></path>
    <path fill="#231f20" class="border" d="M87.68 1.53a1.07 1.07 0 0 1 .37 1.52l-11 15.37a1.07 1.07 0 0 1-2-.6v-10A7.87 7.87 0 0 1 83 0a7.56 7.56 0 0 1 4.69 1.53z"></path>
    <path fill="#fff" fill-rule="evenodd" d="M76.27 17.8L87.08 2.7a.3.3 0 0 0-.08-.43L86.57 2A6.71 6.71 0 0 0 83 1a7 7 0 0 0-6.9 6.84v9.91a.1.1 0 0 0 .19.06z"></path>
    <path fill="#231f20" class="border" d="M100.64 20.12a1.06 1.06 0 0 1-1 1.09h-8.79a1.07 1.07 0 0 1-.85-1.67l8.66-12.16a1.07 1.07 0 0 1 2 .57v12.17z"></path>
    <path fill="#fff" fill-rule="evenodd" d="M99.49 8l-8.66 12.1a.1.1 0 0 0 .08.17h8.47a.3.3 0 0 0 .3-.3V8a.1.1 0 0 0-.19 0z"></path>
    <path fill="#231f20" class="border" d="M78.31 21.22a1.08 1.08 0 0 1-.91-1.63L89 3.36a8 8 0 0 1 1.8-1.83A7.77 7.77 0 0 1 95.47 0a7.92 7.92 0 0 1 3.17.66 7.31 7.31 0 0 1 1.7 1 1.06 1.06 0 0 1 .21 1.45L87.93 20.79a1.08 1.08 0 0 1-.85.43z"></path>
    <path fill="#fff" fill-rule="evenodd" d="M87 20.23a.3.3 0 0 0 .24-.12l12.4-17.37s.17-.24 0-.36a5.51 5.51 0 0 0-1.35-.78 6.92 6.92 0 0 0-6.87.76 7.28 7.28 0 0 0-1.55 1.58L78.29 20.06a.1.1 0 0 0 .08.16z"></path>
    <path fill="#231f20" class="border" d="M73.11 5.62h-8.77a1.06 1.06 0 0 1-.9-1.62L66 .49a1 1 0 0 1 .9-.46h8.77a1.07 1.07 0 0 1 .92 1.6L74 5.18a1.1 1.1 0 0 1-.86.44z"></path>
    <path fill="#fff" fill-rule="evenodd" d="M73 4.51l2.44-3.33a.1.1 0 0 0-.05-.18h-8.2a.29.29 0 0 0-.24.13L64.5 4.47a.1.1 0 0 0 .08.17h8.2a.3.3 0 0 0 .22-.13z"></path>
    <path fill="#231f20" class="border" d="M70.9 6.62a1.08 1.08 0 0 1 .91 1.63l-6.87 9.63a8 8 0 0 1-1.8 1.83 7.78 7.78 0 0 1-4.65 1.51 7.93 7.93 0 0 1-3.17-.66 7.31 7.31 0 0 1-1.7-1 1.06 1.06 0 0 1-.21-1.45L61.28 7a1.08 1.08 0 0 1 .85-.43z"></path>
    <path fill="#fff" fill-rule="evenodd" d="M62.33 7.77a.3.3 0 0 0-.24.12l-7.53 10.56s-.17.24 0 .36a5.52 5.52 0 0 0 1.35.78 5.31 5.31 0 0 0 2.46.47 6.59 6.59 0 0 0 4.08-1.24 8.66 8.66 0 0 0 1.64-1.77l6.49-9.12a.1.1 0 0 0-.08-.16z"></path>
  </g>
</svg>